<svg id="Capa_1" data-name="Capa 1" xmlns="http://www.w3.org/2000/svg" viewBox="0 0 1507.37 488.18">
  <defs>
    <style>
      .cls-1 {
        fill: #fff;
      }
    </style>
  </defs>
  <title>logo IV - sin puntos</title>
  <g>
    <polygon class="cls-1" points="0 488.09 80.66 488.09 157.96 0 77.3 0 0 488.09"/>
    <path class="cls-1" d="M1484.4,487.91l99.47.18-111-205.2C1677,261.71,1707.33,0,1491.29,0H1339.36l-12.78,80.68h151.94c118.1,0,105.65,123.06-19.49,123.06h-152l-12.77,80.66-32.26,203.69h80.66L1375,284.44h.31Z" transform="translate(-132.81 -0.03)"/>
    <polygon class="cls-1" points="883.9 0 871.12 80.66 851.63 203.72 838.85 284.37 828.9 347.21 641.89 0.15 641.92 0 561.26 0 506.29 347.06 319.28 0 238.62 0 161.32 488.09 241.98 488.09 297.16 139.69 483.92 488.04 483.96 488.01 483.95 488.09 564.61 488.09 619.77 139.84 806.53 488.18 806.68 488.09 887.25 488.09 1048.57 488.09 1061.34 407.43 900.02 407.43 919.51 284.37 1080.83 284.37 1093.61 203.72 932.29 203.72 951.78 80.66 1113.1 80.66 1125.87 0 964.56 0 883.9 0"/>
  </g>
</svg>
