<svg id="Capa_1" data-name="Capa 1" xmlns="http://www.w3.org/2000/svg" viewBox="0 0 1766.72 804.97">
  <defs>
    <style>
      .cls-1 {
        fill: #fff;
      }
    </style>
  </defs>
  <title>logo IV</title>
  <circle class="cls-1" cx="1720.15" cy="245.15" r="46.57"/>
  <circle class="cls-1" cx="46.57" cy="245.15" r="46.57"/>
  <g>
    <path class="cls-1" d="M145.93,802H137L100.15,688h15.39l29.53,91.42L203.55,688h15.7Z" transform="translate(0 -0.03)"/>
    <path class="cls-1" d="M259.31,802,277.47,687.3h14.36L273.67,802Z" transform="translate(0 -0.03)"/>
    <path class="cls-1" d="M350.26,802l18.06-114h67.46q16.85,0,24.33,7.18t5.26,21.23a30.54,30.54,0,0,1-4.62,12.18,27.75,27.75,0,0,1-9,8.68,30,30,0,0,1,11.7,12.92q3.44,7.64,1.87,17.55-2.51,15.82-14.35,25.06T421.35,802Zm25.08-69h54.55q9,0,14.38-4.08t6.61-11.72c.86-5.38-.05-9.41-2.68-12.09s-7-4-13.25-4H380.4Zm-8.85,55.88h59.68c6.46,0,11.87-1.91,16.19-5.73s7-9,8.06-15.65,0-11.74-3.11-15.6-7.91-5.78-14.37-5.78H373.26Z" transform="translate(0 -0.03)"/>
    <path class="cls-1" d="M530.07,802l18.06-114h65.39q16.74,0,24.91,8.42t5.81,23.29a37.67,37.67,0,0,1-10.8,21.23,38.88,38.88,0,0,1-21.37,11L632.64,802h-15.7l-20.61-49.89H552.17L544.26,802Zm24.17-63.22h50.3q10.76,0,17-4.75c4.17-3.16,6.76-7.81,7.73-14s-.15-10.67-3.31-14-8.08-5-14.75-5h-51Z" transform="translate(0 -0.03)"/>
    <path class="cls-1" d="M872.34,802l16-100.92H840.4l2.08-13.12H952.69L950.61,701h-48L886.61,802Z" transform="translate(0 -0.03)"/>
    <path class="cls-1" d="M988.53,802l18.16-114.66H1021L1002.88,802Z" transform="translate(0 -0.03)"/>
    <path class="cls-1" d="M1134.17,805q-25.62,0-39.63-16.89t-9.89-42.82q4.13-26,23.53-42.92a66.34,66.34,0,0,1,44.92-16.89q25.61,0,39.78,16.94t10,42.87a69.37,69.37,0,0,1-23.57,42.82A66.94,66.94,0,0,1,1134.17,805Zm2.12-13.33a49.28,49.28,0,0,0,33.88-13.12A54.6,54.6,0,0,0,1188,745.25q3.21-20.24-7.27-33.36T1151,698.77a49.19,49.19,0,0,0-33.9,13.17,54.82,54.82,0,0,0-17.88,33.31q-3.2,20.14,7.33,33.26t29.78,13.12Z" transform="translate(0 -0.03)"/>
    <path class="cls-1" d="M1261.17,802l18.06-114h7.45l60.49,85.19,13.5-85.22h14.26l-18.06,114h-7.24l-60.78-85.22-13.49,85.22Z" transform="translate(0 -0.03)"/>
    <path class="cls-1" d="M1425,784.81l10.2-12.29a78.79,78.79,0,0,0,22.88,14.36,66.64,66.64,0,0,0,25.09,5q15.81,0,26.74-6.71t12.59-17.26a14.22,14.22,0,0,0-4.89-13.79q-6.21-5.42-18.55-6.45c-2-.21-4.82-.42-8.58-.62q-27.78-2-37.28-6.62c-4.89-2.54-8.41-5.83-10.52-9.86a21.31,21.31,0,0,1-2-13.59q2.17-13.72,15.88-22.62t33.33-8.88a80.67,80.67,0,0,1,27.4,4.7,79.11,79.11,0,0,1,24.19,13.9l-10.13,11.77a64.15,64.15,0,0,0-20.14-12.76,63.43,63.43,0,0,0-23.23-4.28q-12.92,0-22.08,5t-10.35,12.55a10.51,10.51,0,0,0,.48,5.47,11.8,11.8,0,0,0,3.4,4.65q6.16,5.26,29.3,6.71c7.1.42,12.56.87,16.42,1.35q17,2,25.7,11.15t6.55,22.63q-2.54,16-18.06,26.34T1481.28,805a90.81,90.81,0,0,1-30.87-5A78.14,78.14,0,0,1,1425,784.81Z" transform="translate(0 -0.03)"/>
  </g>
  <path class="cls-1" d="M748.81,688.3h8.89l36.89,114H779.17l-29.53-91.42-58.47,91.46h-15.7Z" transform="translate(0 -0.03)"/>
  <g>
    <polygon class="cls-1" points="132.81 488.09 213.47 488.09 290.77 0 210.11 0 132.81 488.09"/>
    <path class="cls-1" d="M1484.4,487.91l99.47.18-111-205.2C1677,261.71,1707.33,0,1491.29,0H1339.36l-12.78,80.68h151.94c118.1,0,105.65,123.06-19.49,123.06h-152l-12.77,80.66-32.26,203.69h80.66L1375,284.44h.31Z" transform="translate(0 -0.03)"/>
    <polygon class="cls-1" points="1016.71 0 1003.93 80.66 984.44 203.72 971.66 284.37 961.71 347.21 774.7 0.15 774.73 0 694.07 0 639.1 347.06 452.09 0 371.43 0 294.13 488.09 374.79 488.09 429.97 139.69 616.73 488.04 616.77 488.01 616.76 488.09 697.42 488.09 752.58 139.84 939.34 488.18 939.49 488.09 1020.06 488.09 1181.38 488.09 1194.15 407.43 1032.83 407.43 1052.32 284.37 1213.64 284.37 1226.42 203.72 1065.1 203.72 1084.59 80.66 1245.91 80.66 1258.68 0 1097.37 0 1016.71 0"/>
  </g>
</svg>
